<svg width="93" height="31" viewBox="0 0 93 31" fill="none" xmlns="http://www.w3.org/2000/svg">
<path d="M0 23.8035V6.42773H7.46936C11.2884 6.42773 13.4406 8.43181 13.4406 11.6085C13.4406 12.845 12.6177 14.2521 11.4361 14.6999C13.0819 15.2329 14.2424 16.8532 14.2424 18.5375C14.2424 21.7568 11.9636 23.8035 8.10235 23.8035H0ZM3.84018 13.4633H7.30056C8.75645 13.4633 9.60044 12.8237 9.60044 11.6085C9.60044 10.3932 8.75645 9.73232 7.30056 9.73232H3.84018V13.4633ZM3.84018 20.4989H7.93355C9.45274 20.4989 10.4022 19.8167 10.4022 18.5375C10.4022 17.2583 9.45274 16.576 7.93355 16.576H3.84018V20.4989Z" fill="#FF7063"/>
<path d="M41.855 6C46.4297 6.00007 49.7372 8.55568 50.7466 11.8141H46.4513C45.721 10.5362 44.0668 9.55681 41.9405 9.55681C40.6418 9.55685 39.4795 9.94456 38.5587 10.6237C37.9508 11.0128 37.3636 11.5448 36.8942 12.2525C36.8589 12.2861 36.8328 12.3161 36.8218 12.329C36.7712 12.3888 36.7098 12.471 36.6455 12.5621C36.5125 12.7504 36.3289 13.0288 36.113 13.3715C35.68 14.0589 35.1068 15.0258 34.5414 16.0907C33.9771 17.1537 33.4139 18.3262 33.0063 19.4231C32.943 19.5934 32.8838 19.7644 32.8273 19.9341C31.2179 22.5663 28.2618 24.2302 24.6927 24.2303C19.2588 24.2303 15.2422 20.3755 15.2422 15.1151C15.2422 9.85478 19.2588 6 24.6927 6C28.0599 6.00006 30.8818 7.48091 32.5418 9.85865C32.4804 10.0531 32.4129 10.2561 32.3361 10.4654C31.9569 11.4982 31.4237 12.6236 30.8763 13.6647C30.6587 14.0786 30.4392 14.4772 30.228 14.8494C30.104 11.7097 27.7848 9.49297 24.6927 9.49288C21.5139 9.49288 19.1512 11.8354 19.1512 15.1151C19.1512 18.3736 21.5139 20.7374 24.6927 20.7374C26.4111 20.7374 27.8897 20.0455 28.8867 18.8959C29.1337 18.646 29.3661 18.3643 29.5745 18.0474C29.6095 18.0138 29.6355 17.9839 29.6464 17.9709C29.6968 17.9109 29.7579 17.8278 29.8219 17.7364C29.9541 17.5477 30.1368 17.2688 30.3513 16.9253C30.7815 16.2362 31.3508 15.2672 31.9119 14.2001C32.4159 13.2414 32.9173 12.1936 33.3067 11.193C33.3084 11.1967 33.3103 11.2002 33.312 11.2039C34.7436 8.05165 37.9221 6 41.855 6ZM51.1331 15.1151C51.1331 20.3754 47.1599 24.2302 41.855 24.2303C38.4385 24.2303 35.5924 22.6815 33.9651 20.2085C34.0077 20.0831 34.0532 19.9547 34.1019 19.8236C34.4853 18.7923 35.0228 17.6689 35.5744 16.63C35.8535 16.1042 36.1352 15.6031 36.3994 15.1499C36.4162 18.3903 38.7732 20.7373 41.9405 20.7374C44.6682 20.7374 46.5585 19.0762 46.9666 17.3724H41.6185V14.0931H51.1331V15.1151Z" fill="#FF7063"/>
<path d="M52.1328 15.8997V6.14258H56.0245V15.8997C56.0245 18.6936 57.564 20.5634 60.1086 20.5634C62.6531 20.5634 64.1927 18.6936 64.1927 15.8997V6.14258H68.0843V15.8997C68.0843 20.8643 64.8983 24.088 60.1086 24.088C55.3188 24.088 52.1328 20.8643 52.1328 15.8997Z" fill="#FF7063"/>
<path d="M69.085 23.8035V6.42773H72.1875L78.2001 16.1496L84.2127 6.42773H87.3153V23.8035H83.421V14.2735L79.3769 20.9466H77.0233L72.9792 14.2735V23.8035H69.085Z" fill="#FF7063"/>
<path d="M88.3154 6.42773H92.0185V23.8035H88.3154V6.42773Z" fill="#FF7063"/>
</svg>
