<svg width="44" height="44" viewBox="0 0 44 44" fill="none" xmlns="http://www.w3.org/2000/svg">
<path opacity="0.5" d="M23.0472 7.80777C22.443 8.33314 21.5157 8.33314 20.9142 7.80777C16.2332 3.73622 9.27742 3.58386 4.49925 8.67199C-5.96596 21.9243 9.22751 33.6188 19.2488 40.706C20.0475 41.2714 21.0021 41.575 21.9807 41.575C22.9593 41.575 23.9138 41.2714 24.7126 40.706C34.8074 33.5847 49.9299 21.9243 39.4621 8.67199C34.6866 3.58386 27.7255 3.73622 23.0445 7.80777" fill="#FF7063"/>
<circle cx="16.7395" cy="14.7395" r="1.73953" fill="#FF7063"/>
<circle cx="27.177" cy="14.7395" r="1.73953" fill="#FF7063"/>
<path d="M27.1596 19.0801C24.4423 21.7974 20.0367 21.7974 17.3193 19.0801" stroke="#FF7063" stroke-width="2" stroke-linecap="round"/>
</svg>
