<svg width="44" height="44" viewBox="0 0 44 44" fill="none" xmlns="http://www.w3.org/2000/svg">
<path opacity="0.5" d="M1.09961 22.7066C1.09961 17.8596 1.09961 15.4372 2.17624 13.4298C3.24873 11.4203 5.21358 10.1752 9.14122 7.6808L13.2821 5.05298C17.4333 2.41669 19.51 1.09961 21.8041 1.09961C24.0981 1.09961 26.1727 2.41669 30.326 5.05298L34.4669 7.6808C38.3945 10.1752 40.3594 11.4203 41.4339 13.4298C42.5085 15.4393 42.5085 17.8596 42.5085 22.7045V25.9273C42.5085 34.1855 42.5085 38.3168 40.0819 40.8832C37.6554 43.4496 33.7526 43.4496 25.9449 43.4496H17.6632C9.85552 43.4496 5.95066 43.4496 3.52617 40.8832C1.10168 38.3168 1.09961 34.1877 1.09961 25.9273V22.7066Z" fill="#FF7063"/>
<path d="M20.251 34.9797C20.251 35.4009 20.4146 35.8048 20.7058 36.1027C20.997 36.4005 21.392 36.5678 21.8038 36.5678C22.2156 36.5678 22.6106 36.4005 22.9018 36.1027C23.193 35.8048 23.3566 35.4009 23.3566 34.9797V28.6272C23.3566 28.206 23.193 27.802 22.9018 27.5042C22.6106 27.2064 22.2156 27.0391 21.8038 27.0391C21.392 27.0391 20.997 27.2064 20.7058 27.5042C20.4146 27.802 20.251 28.206 20.251 28.6272V34.9797Z" fill="#FF7063"/>
</svg>
