<svg width="44" height="43" viewBox="0 0 44 43" fill="none" xmlns="http://www.w3.org/2000/svg">
<path opacity="0.5" fill-rule="evenodd" clip-rule="evenodd" d="M14.6962 38.8406C9.34818 34.9435 3.06934 30.3641 3.06934 22.4293C3.06934 13.6696 13.5411 7.45696 22.1089 15.8797C30.6768 7.45696 41.1486 13.6696 41.1486 22.4293C41.1486 30.3662 34.8697 34.9435 29.5217 38.8406C28.966 39.2458 28.423 39.6441 27.8928 40.0356C25.9169 41.5096 24.0129 42.899 22.1089 42.899C20.205 42.899 18.301 41.5096 16.3251 40.0356C15.7948 39.6427 15.2519 39.2444 14.6962 38.8406Z" fill="#CCCECF"/>
<path d="M22.1085 20.6743C22.5293 20.6743 22.9329 20.8377 23.2304 21.1285C23.528 21.4193 23.6952 21.8137 23.6952 22.2249V27.3935C23.6952 27.8047 23.528 28.1991 23.2304 28.4899C22.9329 28.7807 22.5293 28.9441 22.1085 28.9441C21.6877 28.9441 21.2842 28.7807 20.9866 28.4899C20.6891 28.1991 20.5219 27.8047 20.5219 27.3935V22.2249C20.5219 21.8137 20.6891 21.4193 20.9866 21.1285C21.2842 20.8377 21.6877 20.6743 22.1085 20.6743ZM13.1176 11.8877C13.1176 8.77625 14.0632 6.63853 15.5272 5.27195C17.0017 3.89091 19.2082 3.10115 22.1085 3.10115C25.0068 3.10115 27.2154 3.89091 28.6899 5.27195C30.1538 6.63853 31.0995 8.77625 31.0995 11.8877C32.1838 11.912 33.2563 12.1153 34.2727 12.4852V11.8877C34.2727 8.14775 33.1177 5.11689 30.8837 3.02879C28.6624 0.953086 25.5822 0 22.1085 0C18.6349 0 15.5547 0.953086 13.3334 3.02879C11.0994 5.11689 9.94434 8.14775 9.94434 11.8877V12.4873C10.9605 12.116 12.033 11.9133 13.1176 11.8877Z" fill="#CCCECF"/>
</svg>
